<?xml version="1.0" encoding="UTF-8" standalone="no"?><!DOCTYPE svg PUBLIC "-//W3C//DTD SVG 1.1//EN" "http://www.w3.org/Graphics/SVG/1.1/DTD/svg11.dtd"><svg width="100%" height="100%" viewBox="0 0 979 350" version="1.1" xmlns="http://www.w3.org/2000/svg" xmlns:xlink="http://www.w3.org/1999/xlink" xml:space="preserve" xmlns:serif="http://www.serif.com/" style="fill-rule:evenodd;clip-rule:evenodd;stroke-miterlimit:2;"><g><rect x="-7375.48" y="-4487.93" width="23976.4" height="8799.21" style="fill:none;stroke:#1d1d1b;stroke-width:0.9px;"/><rect x="-6903.04" y="-4015.49" width="23031.5" height="7854.33" style="fill:url(#_Radial1);"/><path d="M-0,349.434c255.826,-83.146 708.245,-197.783 978.875,-67.004c-317.1,-73.777 -666.793,3.161 -978.875,67.004Z" style="fill:#009fe3;fill-rule:nonzero;"/><path d="M24.718,234.532l23.054,-0l0,-58.596c2.562,3.322 5.484,5.883 8.846,7.645c3.322,1.801 7.044,3.001 11.207,3.682c4.162,0.64 8.765,0.96 13.808,0.92c9.886,0.04 18.372,-1.881 25.456,-5.683c7.084,-3.842 12.528,-9.806 16.33,-17.851c3.802,-8.045 5.723,-18.371 5.764,-30.979l-0,-36.983c-0.041,-9.446 -1.201,-17.451 -3.483,-23.935c-2.281,-6.484 -5.523,-11.687 -9.766,-15.65c-4.202,-3.922 -9.205,-6.764 -15.009,-8.525c-5.803,-1.721 -12.247,-2.601 -19.292,-2.561c-5.483,-0 -10.606,0.76 -15.329,2.241c-4.723,1.521 -8.766,3.682 -12.168,6.524c-3.402,2.882 -5.843,6.364 -7.325,10.446l-2.881,-18.491l-19.212,-0l0,187.796Zm23.054,-100.142l0,-30.259c0,-6.884 0.681,-12.647 2.041,-17.29c1.321,-4.643 3.322,-8.365 5.924,-11.167c2.602,-2.802 5.804,-4.843 9.566,-6.124c3.763,-1.281 8.085,-2.001 12.968,-2.161c4.683,-0.04 8.766,0.4 12.288,1.28c3.522,0.921 6.444,2.442 8.805,4.603c2.321,2.162 4.083,5.124 5.243,8.886c1.201,3.802 1.762,8.565 1.762,14.289l-0,36.742c-0,8.205 -1.041,14.689 -3.163,19.533c-2.161,4.802 -5.403,8.245 -9.805,10.326c-4.403,2.081 -10.007,3.082 -16.811,3.042c-6.764,0.04 -12.288,-0.921 -16.53,-2.882c-4.243,-1.961 -7.365,-5.284 -9.366,-9.926c-1.961,-4.643 -2.962,-10.927 -2.922,-18.892Z" style="fill-rule:nonzero;"/><path d="M208.431,169.692c-6.803,0.04 -12.407,-0.96 -16.81,-3.042c-4.403,-2.121 -7.644,-5.604 -9.766,-10.566c-2.161,-4.923 -3.202,-11.568 -3.202,-20.013l0,-40.105c0,-6.323 0.681,-11.487 2.001,-15.489c1.281,-4.042 3.242,-7.124 5.764,-9.326c2.562,-2.161 5.684,-3.682 9.366,-4.523c3.682,-0.8 7.885,-1.201 12.647,-1.16c4.763,-0.041 8.966,0.36 12.648,1.16c3.683,0.841 6.805,2.362 9.366,4.523c2.522,2.202 4.483,5.284 5.804,9.326c1.281,4.002 1.961,9.166 1.961,15.489l-0,40.105c0.04,8.445 -0.961,15.09 -3.002,20.013c-2.041,4.962 -5.283,8.445 -9.646,10.566c-4.403,2.082 -10.126,3.082 -17.131,3.042Zm0,19.932c12.368,0.04 22.414,-1.761 30.179,-5.403c7.765,-3.642 13.449,-9.406 17.051,-17.291c3.602,-7.885 5.403,-18.171 5.363,-30.859l-0,-40.105c-0.04,-12.367 -2.201,-22.253 -6.444,-29.738c-4.202,-7.484 -10.246,-12.888 -18.091,-16.25c-7.845,-3.362 -17.211,-5.003 -28.058,-4.923c-10.846,-0.08 -20.212,1.561 -28.057,4.923c-7.845,3.362 -13.849,8.766 -18.091,16.25c-4.243,7.485 -6.404,17.371 -6.444,29.738l0,40.105c-0.04,12.688 1.681,22.974 5.203,30.859c3.523,7.885 9.166,13.649 16.891,17.291c7.725,3.642 17.891,5.443 30.498,5.403Z" style="fill-rule:nonzero;"/><path d="M289.842,150.72c-0.04,7.325 0.6,13.409 1.881,18.171c1.281,4.763 3.362,8.486 6.244,11.167c2.842,2.682 6.604,4.523 11.327,5.604c4.723,1.081 10.486,1.601 17.29,1.561l0,-22.574c-3.362,0.04 -6.083,-0.36 -8.205,-1.161c-2.121,-0.8 -3.722,-2.241 -4.722,-4.322c-1.001,-2.082 -1.482,-4.964 -1.482,-8.686l0,-148.652l-22.333,0l-0,148.892Z" style="fill-rule:nonzero;"/><path d="M373.894,187.453l-0,-139.526l-22.814,-0l-0,139.526l22.814,-0Zm-24.976,-172.667c0.04,3.042 0.721,5.563 2.042,7.525c1.32,1.961 3.041,3.442 5.123,4.362c2.081,0.961 4.283,1.401 6.644,1.361c2.361,-0.08 4.563,-0.6 6.644,-1.601c2.081,-1.04 3.802,-2.521 5.123,-4.442c1.321,-1.962 2.001,-4.363 2.041,-7.205c-0.04,-3.042 -0.72,-5.563 -2.041,-7.564c-1.321,-2.002 -3.042,-3.483 -5.123,-4.443c-2.081,-0.961 -4.283,-1.441 -6.644,-1.401c-2.361,0 -4.563,0.56 -6.644,1.561c-2.082,1 -3.803,2.521 -5.123,4.483c-1.321,2.001 -2.002,4.442 -2.042,7.364Z" style="fill-rule:nonzero;"/><path d="M452.182,187.943c6.084,-0.08 11.447,-1 16.09,-2.841c4.603,-1.842 8.405,-4.163 11.367,-7.045c2.962,-2.882 5.043,-5.883 6.164,-9.086l-0,23.055c-0,6.324 -0.721,11.607 -2.161,15.849c-1.401,4.203 -3.483,7.565 -6.124,10.047c-2.642,2.441 -5.844,4.202 -9.526,5.243c-3.722,1.041 -7.885,1.561 -12.448,1.521c-5.083,0.04 -9.566,-0.521 -13.488,-1.681c-3.923,-1.161 -7.084,-3.282 -9.446,-6.324c-2.361,-3.042 -3.762,-7.325 -4.203,-12.888l-21.853,0c0.44,10.206 2.602,18.371 6.564,24.495c3.922,6.124 9.446,10.567 16.57,13.288c7.125,2.722 15.65,4.043 25.616,4.003c10.486,0.04 19.572,-1.761 27.337,-5.403c7.725,-3.643 13.769,-9.406 18.011,-17.291c4.283,-7.885 6.444,-18.171 6.524,-30.859l0,-144.089l-18.972,-0l-2.881,17.771c-1.481,-4.083 -3.883,-7.565 -7.205,-10.447c-3.282,-2.841 -7.284,-5.003 -11.927,-6.524c-4.643,-1.481 -9.726,-2.241 -15.21,-2.241c-7.044,-0.04 -13.488,0.84 -19.292,2.561c-5.803,1.762 -10.806,4.603 -15.009,8.526c-4.242,3.962 -7.484,9.165 -9.766,15.65c-2.281,6.483 -3.442,14.488 -3.482,23.934l0,42.506c0,15.89 4.083,27.897 12.207,36.023c8.166,8.125 20.333,12.207 36.543,12.247Zm0,-21.373c-5.443,0.04 -10.126,-0.88 -13.969,-2.762c-3.882,-1.881 -6.844,-4.963 -8.885,-9.286c-2.041,-4.362 -3.082,-10.166 -3.082,-17.49l0,-40.105c0,-5.723 0.601,-10.487 1.761,-14.289c1.161,-3.762 2.922,-6.724 5.244,-8.885c2.361,-2.162 5.283,-3.683 8.805,-4.603c3.522,-0.881 7.605,-1.321 12.287,-1.281c4.764,0.16 8.966,0.841 12.648,2.041c3.643,1.241 6.765,3.162 9.286,5.804c2.562,2.642 4.523,6.164 5.884,10.606c1.32,4.403 2.081,9.847 2.201,16.371l0,27.136c0,7.245 -0.761,13.249 -2.241,18.011c-1.521,4.763 -3.642,8.526 -6.444,11.247c-2.802,2.762 -6.204,4.683 -10.166,5.844c-3.963,1.121 -8.406,1.681 -13.329,1.641Z" style="fill-rule:nonzero;"/><path d="M595.791,46.736c-5.804,-1.161 -11.327,-1.361 -16.611,-0.601c-5.243,0.801 -9.925,2.362 -14.008,4.723c-4.123,2.322 -7.365,5.284 -9.726,8.846l-0.961,-12.968l-20.892,-0l-0,140.727l22.814,-0l-0,-90.296c0.039,-5.403 1.04,-10.046 3.041,-13.848c2.002,-3.843 4.803,-6.925 8.365,-9.166c3.563,-2.282 7.725,-3.762 12.488,-4.443c4.763,-0.68 9.926,-0.6 15.49,0.32l-0,-23.294Z" style="fill-rule:nonzero;"/><path d="M709.621,92.364c-0.04,-11.327 -2.001,-20.452 -5.884,-27.377c-3.882,-6.924 -9.445,-11.927 -16.73,-15.049c-7.284,-3.162 -16.09,-4.683 -26.376,-4.643c-9.966,-0.04 -18.332,1.481 -25.135,4.563c-6.845,3.082 -11.928,7.925 -15.33,14.449c-3.442,6.564 -4.963,15.049 -4.683,25.416l22.334,-0c-0.04,-6.284 0.84,-11.127 2.681,-14.529c1.842,-3.443 4.443,-5.804 7.765,-7.125c3.322,-1.321 7.205,-1.961 11.647,-1.881c7.005,0.04 12.408,1.121 16.29,3.242c3.923,2.161 6.605,5.203 8.166,9.085c1.521,3.923 2.281,8.526 2.201,13.849l0,13.689c-5.564,0.08 -11.207,0.28 -16.931,0.52c-5.723,0.28 -11.367,0.84 -16.93,1.641c-9.646,1.401 -17.851,4.203 -24.535,8.405c-6.724,4.203 -11.688,9.526 -14.969,16.01c-3.242,6.484 -4.483,13.889 -3.723,22.174c0.36,4.202 1.281,8.285 2.722,12.247c1.441,3.963 3.682,7.565 6.724,10.767c3.082,3.202 7.245,5.764 12.488,7.685c5.243,1.881 11.847,2.881 19.852,2.922c5.724,-0.08 10.967,-1.041 15.73,-2.922c4.763,-1.921 8.885,-4.403 12.328,-7.445c3.442,-3.042 6.003,-6.324 7.724,-9.806l1.922,18.972l20.652,-0l0,-94.859Zm-22.574,32.66c-0.16,5.804 -0.8,11.207 -1.961,16.21c-1.161,5.003 -3.002,9.406 -5.523,13.209c-2.522,3.802 -5.924,6.764 -10.127,8.885c-4.242,2.121 -9.485,3.202 -15.769,3.242c-3.483,0.04 -6.765,-0.44 -9.847,-1.361c-3.081,-0.88 -5.643,-2.441 -7.684,-4.563c-2.041,-2.161 -3.242,-5.083 -3.602,-8.725c-0.801,-6.804 0.72,-12.167 4.563,-16.13c3.842,-3.922 9.685,-6.724 17.53,-8.365c4.043,-0.881 8.165,-1.481 12.288,-1.801c4.162,-0.32 8.005,-0.521 11.527,-0.561c3.522,-0.04 6.404,-0.079 8.605,-0.04Z" style="fill-rule:nonzero;"/><path d="M738.919,187.463l22.814,-0l0,-109.508l30.019,0l-0,-21.133l-30.019,0l0,-4.803c0,-6.884 0.801,-12.447 2.402,-16.77c1.561,-4.283 3.842,-7.565 6.804,-9.766c2.962,-2.201 6.564,-3.602 10.767,-4.203c4.162,-0.56 8.885,-0.6 14.128,0l0,-20.893c-8.485,-0.8 -16.21,-0.36 -23.174,1.321c-6.964,1.641 -12.968,4.603 -17.971,8.806c-5.043,4.242 -8.926,9.806 -11.647,16.69c-2.722,6.884 -4.083,15.169 -4.123,24.815l0,135.444Z" style="fill-rule:nonzero;"/><path d="M841.703,187.223l-0,-139.526l-22.814,-0l-0,139.526l22.814,-0Zm-24.976,-172.667c0.04,3.042 0.721,5.563 2.042,7.525c1.32,1.961 3.041,3.442 5.123,4.362c2.081,0.961 4.282,1.401 6.644,1.361c2.361,-0.08 4.563,-0.6 6.644,-1.601c2.081,-1.04 3.802,-2.521 5.123,-4.442c1.321,-1.962 2.001,-4.363 2.041,-7.205c-0.04,-3.042 -0.72,-5.563 -2.041,-7.564c-1.321,-2.002 -3.042,-3.483 -5.123,-4.443c-2.081,-0.961 -4.283,-1.441 -6.644,-1.401c-2.362,0 -4.563,0.56 -6.644,1.561c-2.082,1 -3.803,2.521 -5.123,4.483c-1.321,2.001 -2.002,4.442 -2.042,7.364Z" style="fill-rule:nonzero;"/><path d="M969.942,92.364c-0.04,-11.327 -2.001,-20.452 -5.884,-27.377c-3.882,-6.924 -9.446,-11.927 -16.73,-15.049c-7.285,-3.162 -16.09,-4.683 -26.376,-4.643c-9.967,-0.04 -18.332,1.481 -25.136,4.563c-6.844,3.082 -11.927,7.925 -15.329,14.449c-3.442,6.564 -4.963,15.049 -4.683,25.416l22.334,-0c-0.04,-6.284 0.84,-11.127 2.681,-14.529c1.841,-3.443 4.443,-5.804 7.765,-7.125c3.322,-1.321 7.205,-1.961 11.647,-1.881c7.005,0.04 12.408,1.121 16.29,3.242c3.923,2.161 6.605,5.203 8.165,9.085c1.521,3.923 2.282,8.526 2.202,13.849l-0,13.689c-5.564,0.08 -11.207,0.28 -16.931,0.52c-5.723,0.28 -11.367,0.84 -16.93,1.641c-9.646,1.401 -17.851,4.203 -24.536,8.405c-6.724,4.203 -11.687,9.526 -14.969,16.01c-3.242,6.484 -4.482,13.889 -3.722,22.174c0.36,4.202 1.281,8.285 2.722,12.247c1.441,3.963 3.682,7.565 6.724,10.767c3.082,3.202 7.245,5.764 12.488,7.685c5.243,1.881 11.847,2.881 19.852,2.922c5.723,-0.08 10.966,-1.041 15.73,-2.922c4.763,-1.921 8.885,-4.403 12.327,-7.445c3.442,-3.042 6.004,-6.324 7.725,-9.806l1.921,18.972l20.653,-0l0,-94.859Zm-22.574,32.66c-0.16,5.804 -0.801,11.207 -1.961,16.21c-1.161,5.003 -3.002,9.406 -5.523,13.209c-2.522,3.802 -5.924,6.764 -10.127,8.885c-4.242,2.121 -9.486,3.202 -15.77,3.242c-3.482,0.04 -6.764,-0.44 -9.846,-1.361c-3.082,-0.88 -5.643,-2.441 -7.684,-4.563c-2.042,-2.161 -3.242,-5.083 -3.602,-8.725c-0.801,-6.804 0.72,-12.167 4.562,-16.13c3.842,-3.922 9.686,-6.724 17.531,-8.365c4.043,-0.881 8.165,-1.481 12.288,-1.801c4.162,-0.32 8.005,-0.521 11.527,-0.561c3.522,-0.04 6.404,-0.079 8.605,-0.04Z" style="fill-rule:nonzero;"/><path d="M290.086,329.651l-1.865,-0.07c192.016,-63.177 395.059,-77.808 567.698,-48.782c-128.312,1.263 -244.939,10.541 -351.161,51.127c-45.289,-1.987 -93.024,-3.054 -142.344,-3.054c-24.54,-0 -48.675,0.271 -72.328,0.779Z" style="fill:#e6007e;"/><path d="M564.051,335.14c100.639,-34.942 204.421,-53.306 298.01,-42.169c-80.59,6.972 -153.523,18.373 -218.49,48.629c-25.157,-2.491 -51.74,-4.656 -79.52,-6.46Z" style="fill:#ffed00;"/></g><defs><radialGradient id="_Radial1" cx="0" cy="0" r="1" gradientUnits="userSpaceOnUse" gradientTransform="matrix(2e-06,0,0,2e-06,4612.71,-88.323)"><stop offset="0" style="stop-color:#32302e;stop-opacity:1"/><stop offset="1" style="stop-color:#7a7674;stop-opacity:1"/></radialGradient></defs></svg>