<?xml version="1.0" encoding="UTF-8" standalone="no"?><!DOCTYPE svg PUBLIC "-//W3C//DTD SVG 1.1//EN" "http://www.w3.org/Graphics/SVG/1.1/DTD/svg11.dtd"><svg width="100%" height="100%" viewBox="0 0 10053 3589" version="1.1" xmlns="http://www.w3.org/2000/svg" xmlns:xlink="http://www.w3.org/1999/xlink" xml:space="preserve" xmlns:serif="http://www.serif.com/" style="fill-rule:evenodd;clip-rule:evenodd;stroke-linejoin:round;stroke-miterlimit:2;"><path d="M0,3588.63c2627.29,-853.896 7273.55,-2031.2 10052.9,-688.117c-3256.56,-757.679 -6847.84,32.463 -10052.9,688.117Z" style="fill:#009fe3;fill-rule:nonzero;"/><path d="M253.85,2408.6l236.763,0l-0,-601.771c26.308,34.117 56.312,60.421 90.841,78.509c34.117,18.495 72.346,30.828 115.092,37.816c42.75,6.575 90.021,9.863 141.813,9.454c101.528,0.409 188.67,-19.32 261.424,-58.367c72.755,-39.462 128.659,-100.708 167.709,-183.329c39.05,-82.621 58.779,-188.67 59.192,-318.15l-0,-379.808c-0.413,-97.009 -12.334,-179.217 -35.763,-245.804c-23.429,-66.592 -56.725,-120.025 -100.296,-160.721c-43.158,-40.283 -94.541,-69.467 -154.142,-87.554c-59.6,-17.675 -125.779,-26.717 -198.124,-26.304c-56.313,-0 -108.926,7.808 -157.43,23.016c-48.504,15.621 -90.021,37.817 -124.958,67c-34.942,29.596 -60.013,65.359 -75.225,107.284l-29.596,-189.905l-197.3,0l0,1928.63Zm236.763,-1028.44l-0,-310.754c-0,-70.7 6.987,-129.888 20.962,-177.571c13.567,-47.683 34.117,-85.908 60.838,-114.683c26.716,-28.775 59.599,-49.737 98.237,-62.887c38.642,-13.155 83.033,-20.555 133.179,-22.2c48.096,-0.409 90.021,4.112 126.192,13.154c36.175,9.454 66.179,25.075 90.433,47.27c23.838,22.196 41.925,52.617 53.846,91.255c12.329,39.049 18.087,87.962 18.087,146.741l0,377.342c0,84.263 -10.687,150.854 -32.474,200.592c-22.196,49.325 -55.492,84.675 -100.705,106.05c-45.216,21.375 -102.762,31.65 -172.641,31.241c-69.467,0.409 -126.192,-9.458 -169.763,-29.6c-43.57,-20.137 -75.633,-54.258 -96.183,-101.937c-20.142,-47.679 -30.421,-112.217 -30.008,-194.013Z" style="fill:#fff;fill-rule:nonzero;"/><path d="M2140.55,1742.71c-69.874,0.412 -127.424,-9.862 -172.637,-31.237c-45.217,-21.788 -78.509,-57.55 -100.296,-108.517c-22.196,-50.559 -32.884,-118.796 -32.884,-205.525l0,-411.871c0,-64.942 6.988,-117.971 20.551,-159.075c13.154,-41.513 33.295,-73.163 59.192,-95.771c26.308,-22.2 58.371,-37.816 96.187,-46.45c37.816,-8.221 80.975,-12.333 129.887,-11.92c48.916,-0.413 92.075,3.699 129.892,11.92c37.816,8.634 69.879,24.25 96.187,46.45c25.896,22.608 46.038,54.258 59.6,95.771c13.155,41.104 20.143,94.133 20.143,159.075l-0,411.871c0.412,86.729 -9.868,154.966 -30.83,205.525c-20.963,50.967 -54.259,86.729 -99.062,108.517c-45.217,21.375 -103.996,31.649 -175.93,31.237Zm-0,204.7c127.017,0.413 230.188,-18.084 309.933,-55.487c79.743,-37.409 138.113,-96.596 175.105,-177.576c36.995,-80.974 55.491,-186.616 55.079,-316.916l0,-411.871c-0.409,-127.012 -22.608,-228.542 -66.179,-305.404c-43.158,-76.867 -105.225,-132.359 -185.792,-166.888c-80.567,-34.529 -176.75,-51.379 -288.146,-50.558c-111.391,-0.821 -207.575,16.029 -288.141,50.558c-80.568,34.529 -142.225,90.021 -185.796,166.888c-43.571,76.862 -65.767,178.392 -66.175,305.404l-0,411.871c-0.412,130.3 17.262,235.942 53.433,316.916c36.175,80.98 94.129,140.167 173.463,177.576c79.333,37.403 183.737,55.9 313.216,55.487Z" style="fill:#fff;fill-rule:nonzero;"/><path d="M2976.63,1547.87c-0.413,75.224 6.166,137.703 19.32,186.616c13.154,48.913 34.529,87.142 64.121,114.684c29.187,27.537 67.825,46.445 116.329,57.546c48.5,11.099 107.691,16.441 177.57,16.028l0,-231.829c-34.528,0.413 -62.478,-3.7 -84.266,-11.921c-21.783,-8.221 -38.225,-23.016 -48.499,-44.391c-10.28,-21.375 -15.213,-50.971 -15.213,-89.196l-0,-1526.63l-229.362,-0l-0,1529.09Z" style="fill:#fff;fill-rule:nonzero;"/><path d="M3839.83,1922.74l0,-1432.91l-234.296,0l-0,1432.91l234.296,0Zm-256.496,-1773.25c0.412,31.237 7.4,57.132 20.967,77.274c13.563,20.142 31.238,35.35 52.612,44.804c21.376,9.867 43.984,14.388 68.233,13.975c24.255,-0.82 46.863,-6.162 68.234,-16.441c21.375,-10.688 39.05,-25.896 52.613,-45.625c13.566,-20.142 20.554,-44.805 20.967,-73.987c-0.413,-31.242 -7.401,-57.138 -20.967,-77.688c-13.563,-20.554 -31.238,-35.763 -52.613,-45.629c-21.371,-9.863 -43.979,-14.796 -68.234,-14.384c-24.249,0 -46.857,5.755 -68.233,16.029c-21.374,10.275 -39.049,25.896 -52.612,46.038c-13.567,20.55 -20.555,45.625 -20.967,75.634Z" style="fill:#fff;fill-rule:nonzero;"/><path d="M4643.83,1930.14c62.48,-0.821 117.559,-10.274 165.242,-29.183c47.271,-18.908 86.317,-42.75 116.738,-72.346c30.417,-29.595 51.791,-60.421 63.299,-93.308l0,236.762c0,64.946 -7.399,119.205 -22.195,162.776c-14.388,43.162 -35.763,77.687 -62.892,103.174c-27.129,25.075 -60.013,43.159 -97.829,53.846c-38.225,10.688 -80.975,16.034 -127.833,15.621c-52.204,0.413 -98.242,-5.346 -138.525,-17.262c-40.284,-11.921 -72.754,-33.709 -97.009,-64.946c-24.25,-31.242 -38.637,-75.225 -43.159,-132.358l-224.432,-0c4.525,104.816 26.72,188.67 67.412,251.558c40.284,62.892 97.009,108.521 170.176,136.471c73.165,27.95 160.715,41.516 263.07,41.104c107.692,0.412 201,-18.088 280.742,-55.492c79.333,-37.404 141.404,-96.596 184.975,-177.571c43.979,-80.979 66.175,-186.617 67,-316.921l0,-1479.77l-194.838,-0l-29.595,182.504c-15.209,-41.925 -39.872,-77.688 -73.988,-107.283c-33.705,-29.184 -74.813,-51.38 -122.492,-67c-47.683,-15.209 -99.884,-23.021 -156.2,-23.021c-72.342,-0.408 -138.521,8.633 -198.125,26.308c-59.6,18.088 -110.979,47.271 -154.141,87.554c-43.571,40.692 -76.867,94.13 -100.296,160.721c-23.43,66.588 -35.351,148.796 -35.759,245.804l0,436.529c0,163.188 41.925,286.5 125.367,369.946c83.854,83.442 208.812,125.367 375.287,125.779Zm0,-219.499c-55.904,0.412 -103.995,-9.042 -143.458,-28.363c-39.871,-19.316 -70.288,-50.967 -91.25,-95.363c-20.963,-44.804 -31.65,-104.404 -31.65,-179.625l-0,-411.87c-0,-58.779 6.167,-107.696 18.084,-146.746c11.924,-38.638 30.008,-69.054 53.849,-91.25c24.25,-22.196 54.259,-37.817 90.43,-47.271c36.174,-9.042 78.099,-13.563 126.191,-13.154c48.916,1.646 92.075,8.633 129.892,20.962c37.404,12.746 69.467,32.475 95.362,59.604c26.308,27.13 46.45,63.3 60.425,108.926c13.563,45.216 21.375,101.12 22.608,168.12l0,278.688c0,74.4 -7.812,136.058 -23.02,184.971c-15.621,48.916 -37.404,87.554 -66.179,115.504c-28.771,28.363 -63.713,48.096 -104.404,60.016c-40.696,11.509 -86.321,17.263 -136.88,16.851Z" style="fill:#fff;fill-rule:nonzero;"/><path d="M6118.67,479.969c-59.604,-11.92 -116.329,-13.975 -170.588,-6.166c-53.846,8.225 -101.937,24.254 -143.862,48.504c-42.342,23.842 -75.637,54.258 -99.888,90.842l-9.866,-133.18l-214.563,0l0,1445.24l234.296,0l-0,-927.321c0.409,-55.491 10.687,-103.174 31.238,-142.221c20.554,-39.462 49.324,-71.112 85.908,-94.133c36.583,-23.429 79.333,-38.637 128.25,-45.625c48.912,-6.987 101.938,-6.167 159.075,3.288l-0,-239.23Z" style="fill:#fff;fill-rule:nonzero;"/><path d="M7287.69,948.565c-0.412,-116.329 -20.553,-210.046 -60.425,-281.158c-39.87,-71.108 -97.008,-122.492 -171.816,-154.554c-74.812,-32.471 -165.242,-48.092 -270.88,-47.679c-102.35,-0.413 -188.262,15.208 -258.137,46.858c-70.292,31.65 -122.495,81.388 -157.433,148.387c-35.35,67.413 -50.971,154.555 -48.091,261.017l229.362,0c-0.408,-64.533 8.633,-114.271 27.542,-149.208c18.907,-35.354 45.624,-59.604 79.741,-73.171c34.117,-13.562 73.992,-20.141 119.617,-19.316c71.933,0.412 127.425,11.508 167.295,33.295c40.284,22.196 67.825,53.433 83.854,93.304c15.621,40.284 23.43,87.555 22.609,142.225l-0,140.58c-57.137,0.82 -115.095,2.874 -173.875,5.341c-58.779,2.875 -116.737,8.63 -173.871,16.855c-99.062,14.387 -183.329,43.157 -251.975,86.316c-69.054,43.162 -120.025,97.833 -153.729,164.421c-33.296,66.587 -46.038,142.633 -38.229,227.721c3.7,43.158 13.154,85.087 27.954,125.779c14.796,40.696 37.812,77.687 69.054,110.571c31.65,32.883 74.4,59.192 128.246,78.921c53.846,19.32 121.671,29.595 203.879,30.008c58.78,-0.821 112.629,-10.688 161.542,-30.008c48.916,-19.729 91.254,-45.213 126.604,-76.455c35.35,-31.237 61.655,-64.946 79.333,-100.704l19.73,194.833l212.099,0l0,-974.179Zm-231.829,335.413c-1.646,59.604 -8.224,115.095 -20.141,166.475c-11.921,51.379 -30.829,96.596 -56.725,135.646c-25.897,39.05 -60.838,69.467 -103.996,91.249c-43.571,21.788 -97.416,32.888 -161.954,33.297c-35.762,0.412 -69.467,-4.521 -101.117,-13.975c-31.65,-9.042 -57.959,-25.076 -78.921,-46.859c-20.962,-22.195 -33.296,-52.204 -36.992,-89.608c-8.224,-69.879 7.397,-124.959 46.859,-165.65c39.458,-40.283 99.471,-69.058 180.038,-85.913c41.516,-9.041 83.854,-15.208 126.191,-18.495c42.75,-3.288 82.208,-5.346 118.379,-5.755c36.175,-0.412 65.771,-0.82 88.379,-0.412Z" style="fill:#fff;fill-rule:nonzero;"/><path d="M7588.57,1925.21l234.3,0l-0,-1124.62l308.283,0l0,-217.033l-308.283,-0l-0,-49.325c-0,-70.7 8.22,-127.833 24.662,-172.229c16.03,-43.98 39.458,-77.688 69.879,-100.292c30.417,-22.608 67.409,-36.996 110.572,-43.162c42.746,-5.755 91.249,-6.163 145.095,-0l0,-214.567c-87.137,-8.221 -166.471,-3.7 -237.992,13.567c-71.524,16.849 -133.183,47.266 -184.562,90.429c-51.791,43.57 -91.663,100.704 -119.613,171.408c-27.954,70.696 -41.929,155.784 -42.341,254.846l0,1390.98Z" style="fill:#fff;fill-rule:nonzero;"/><path d="M8644.14,1922.74l-0,-1432.91l-234.296,0l-0,1432.91l234.296,0Zm-256.497,-1773.25c0.413,31.237 7.401,57.132 20.968,77.274c13.562,20.142 31.237,35.35 52.612,44.804c21.375,9.867 43.983,14.388 68.234,13.975c24.254,-0.82 46.862,-6.162 68.233,-16.441c21.374,-10.688 39.05,-25.896 52.616,-45.625c13.563,-20.142 20.551,-44.805 20.963,-73.987c-0.412,-31.242 -7.4,-57.138 -20.963,-77.688c-13.566,-20.554 -31.242,-35.763 -52.616,-45.629c-21.371,-9.863 -43.979,-14.796 -68.233,-14.384c-24.251,0 -46.859,5.755 -68.234,16.029c-21.375,10.275 -39.05,25.896 -52.612,46.038c-13.567,20.55 -20.555,45.625 -20.968,75.634Z" style="fill:#fff;fill-rule:nonzero;"/><path d="M9961.14,948.565c-0.413,-116.329 -20.555,-210.046 -60.426,-281.158c-39.87,-71.108 -97.008,-122.492 -171.816,-154.554c-74.813,-32.471 -165.241,-48.092 -270.879,-47.679c-102.354,-0.413 -188.263,15.208 -258.138,46.858c-70.291,31.65 -122.496,81.388 -157.433,148.387c-35.35,67.413 -50.971,154.555 -48.092,261.017l229.363,0c-0.409,-64.533 8.633,-114.271 27.541,-149.208c18.909,-35.354 45.625,-59.604 79.742,-73.171c34.116,-13.562 73.992,-20.141 119.616,-19.316c71.934,0.412 127.426,11.508 167.297,33.295c40.283,22.196 67.824,53.433 83.854,93.304c15.617,40.284 23.429,87.555 22.604,142.225l0,140.58c-57.134,0.82 -115.092,2.874 -173.871,5.341c-58.779,2.875 -116.737,8.63 -173.87,16.855c-99.063,14.387 -183.33,43.157 -251.976,86.316c-69.054,43.162 -120.024,97.833 -153.729,164.421c-33.296,66.587 -46.038,142.633 -38.229,227.721c3.7,43.158 13.154,85.087 27.954,125.779c14.796,40.696 37.813,77.687 69.054,110.571c31.651,32.883 74.401,59.192 128.246,78.921c53.85,19.32 121.671,29.595 203.88,30.008c58.779,-0.821 112.625,-10.688 161.541,-30.008c48.917,-19.729 91.254,-45.213 126.605,-76.455c35.349,-31.237 61.657,-64.946 79.332,-100.704l19.73,194.833l212.1,0l-0,-974.179Zm-231.83,335.413c-1.646,59.604 -8.224,115.095 -20.142,166.475c-11.92,51.379 -30.828,96.596 -56.725,135.646c-25.895,39.05 -60.836,69.467 -103.995,91.249c-43.571,21.788 -97.421,32.888 -161.954,33.297c-35.763,0.412 -69.467,-4.521 -101.117,-13.975c-31.65,-9.042 -57.958,-25.076 -78.921,-46.859c-20.962,-22.195 -33.295,-52.204 -36.992,-89.608c-8.224,-69.879 7.397,-124.959 46.859,-165.65c39.458,-40.283 99.471,-69.058 180.037,-85.913c41.517,-9.041 83.854,-15.208 126.192,-18.495c42.75,-3.288 82.209,-5.346 118.379,-5.755c36.176,-0.412 65.771,-0.82 88.379,-0.412Z" style="fill:#fff;fill-rule:nonzero;"/><path d="M2979.14,3385.46l-19.158,-0.713c1971.97,-648.816 4057.19,-799.074 5830.16,-500.991c-1317.74,12.975 -2515.48,108.262 -3606.36,525.071c-465.112,-20.409 -955.338,-31.367 -1461.85,-31.367c-252.02,0 -499.887,2.788 -742.792,8Z" style="fill:#e6007e;"/><path d="M5792.7,3441.83c1033.55,-358.854 2099.37,-547.442 3060.51,-433.067c-827.642,71.6 -1576.65,188.684 -2243.85,499.404c-258.355,-25.575 -531.359,-47.808 -816.659,-66.337Z" style="fill:#ffed00;"/></svg>