<?xml version="1.0" encoding="UTF-8" standalone="no"?><!DOCTYPE svg PUBLIC "-//W3C//DTD SVG 1.1//EN" "http://www.w3.org/Graphics/SVG/1.1/DTD/svg11.dtd"><svg width="100%" height="100%" viewBox="0 0 4782 1708" version="1.1" xmlns="http://www.w3.org/2000/svg" xmlns:xlink="http://www.w3.org/1999/xlink" xml:space="preserve" xmlns:serif="http://www.serif.com/" style="fill-rule:evenodd;clip-rule:evenodd;stroke-linejoin:round;stroke-miterlimit:2;"><path d="M-0,1707.01c1249.73,-406.174 3459.83,-966.184 4781.88,-327.318c-1549.06,-360.407 -3257.33,15.442 -4781.88,327.318Z" style="fill:#009fe3;fill-rule:nonzero;"/><path d="M120.75,1145.71l112.621,-0l-0,-286.246c12.514,16.228 26.786,28.741 43.211,37.344c16.228,8.798 34.413,14.665 54.746,17.989c20.335,3.127 42.82,4.691 67.456,4.497c48.295,0.194 89.746,-9.191 124.353,-27.764c34.607,-18.771 61.199,-47.904 79.774,-87.204c18.575,-39.301 27.959,-89.746 28.156,-151.335l-0,-180.665c-0.197,-46.144 -5.867,-85.248 -17.012,-116.922c-11.144,-31.676 -26.982,-57.093 -47.708,-76.45c-20.529,-19.162 -44.97,-33.044 -73.321,-41.648c-28.35,-8.407 -59.829,-12.708 -94.242,-12.512c-26.786,0 -51.813,3.714 -74.885,10.949c-23.072,7.43 -42.82,17.988 -59.439,31.87c-16.621,14.078 -28.546,31.089 -35.782,51.031l-14.078,-90.332l-93.85,0l-0,917.398Zm112.621,-489.2l-0,-147.817c-0,-33.63 3.324,-61.784 9.971,-84.465c6.453,-22.682 16.229,-40.865 28.939,-54.552c12.708,-13.687 28.35,-23.659 46.729,-29.914c18.38,-6.257 39.496,-9.777 63.349,-10.56c22.878,-0.194 42.821,1.956 60.026,6.257c17.208,4.497 31.48,11.928 43.017,22.486c11.339,10.558 19.943,25.028 25.613,43.407c5.865,18.575 8.603,41.841 8.603,69.801l0,179.491c0,40.081 -5.083,71.757 -15.447,95.416c-10.558,23.462 -26.396,40.277 -47.902,50.445c-21.508,10.167 -48.881,15.055 -82.121,14.861c-33.043,0.194 -60.026,-4.499 -80.751,-14.08c-20.726,-9.579 -35.977,-25.81 -45.752,-48.489c-9.581,-22.68 -14.47,-53.379 -14.274,-92.287Z" style="fill-rule:nonzero;"/><path d="M1018.2,828.958c-33.237,0.196 -60.612,-4.692 -82.118,-14.859c-21.509,-10.364 -37.345,-27.375 -47.708,-51.619c-10.558,-24.049 -15.642,-56.508 -15.642,-97.762l-0,-195.916c-0,-30.891 3.324,-56.115 9.775,-75.667c6.257,-19.747 15.838,-34.802 28.156,-45.556c12.514,-10.56 27.765,-17.988 45.754,-22.095c17.988,-3.91 38.517,-5.866 61.783,-5.67c23.269,-0.196 43.798,1.76 61.786,5.67c17.989,4.107 33.24,11.535 45.754,22.095c12.318,10.754 21.899,25.809 28.35,45.556c6.257,19.552 9.581,44.776 9.581,75.667l0,195.916c0.196,41.254 -4.693,73.713 -14.665,97.762c-9.971,24.244 -25.809,41.255 -47.121,51.619c-21.508,10.167 -49.468,15.055 -83.685,14.859Zm0,97.37c60.419,0.196 109.494,-8.602 147.427,-26.394c37.931,-17.794 65.696,-45.948 83.293,-84.468c17.597,-38.517 26.395,-88.768 26.199,-150.748l0,-195.916c-0.194,-60.416 -10.754,-108.711 -31.479,-145.272c-20.53,-36.563 -50.053,-62.959 -88.377,-79.384c-38.323,-16.424 -84.075,-24.439 -137.063,-24.049c-52.985,-0.39 -98.737,7.625 -137.06,24.049c-38.324,16.425 -67.653,42.821 -88.378,79.384c-20.726,36.561 -31.284,84.856 -31.478,145.272l0,195.916c-0.196,61.98 8.211,112.231 25.417,150.748c17.207,38.52 44.774,66.674 82.511,84.468c37.737,17.792 87.399,26.59 148.988,26.394Z" style="fill-rule:nonzero;"/><path d="M1415.9,736.279c-0.197,35.782 2.933,65.502 9.19,88.768c6.257,23.266 16.424,41.451 30.5,54.552c13.884,13.099 32.263,22.093 55.335,27.373c23.07,5.28 51.226,7.821 84.465,7.624l0,-110.274c-16.424,0.196 -29.719,-1.76 -40.083,-5.671c-10.362,-3.91 -18.183,-10.948 -23.07,-21.116c-4.889,-10.167 -7.236,-24.245 -7.236,-42.428l-0,-726.175l-109.101,0l-0,727.347Z" style="fill-rule:nonzero;"/><path d="M1826.5,915.72l-0,-681.595l-111.449,0l0,681.595l111.449,0Zm-122.008,-843.488c0.196,14.859 3.519,27.177 9.973,36.758c6.452,9.581 14.859,16.815 25.026,21.312c10.168,4.693 20.922,6.843 32.457,6.647c11.537,-0.39 22.291,-2.931 32.457,-7.821c10.167,-5.083 18.575,-12.318 25.026,-21.702c6.453,-9.581 9.777,-21.312 9.973,-35.194c-0.196,-14.861 -3.52,-27.179 -9.973,-36.954c-6.451,-9.777 -14.859,-17.011 -25.026,-21.704c-10.166,-4.692 -20.92,-7.038 -32.457,-6.842c-11.535,-0 -22.289,2.737 -32.457,7.625c-10.167,4.887 -18.574,12.317 -25.026,21.898c-6.454,9.775 -9.777,21.703 -9.973,35.977Z" style="fill-rule:nonzero;"/><path d="M2208.94,918.116c29.72,-0.39 55.92,-4.887 78.601,-13.881c22.485,-8.994 41.059,-20.335 55.529,-34.413c14.469,-14.078 24.636,-28.741 30.11,-44.384l-0,112.621c-0,30.893 -3.52,56.702 -10.558,77.428c-6.844,20.531 -17.011,36.953 -29.916,49.077c-12.904,11.927 -28.546,20.529 -46.534,25.613c-18.183,5.084 -38.518,7.627 -60.807,7.43c-24.832,0.197 -46.731,-2.542 -65.893,-8.211c-19.161,-5.67 -34.607,-16.034 -46.144,-30.893c-11.535,-14.861 -18.379,-35.782 -20.529,-62.959l-106.757,0c2.153,49.858 12.71,89.746 32.067,119.659c19.161,29.916 46.144,51.621 80.947,64.916c34.803,13.295 76.448,19.748 125.136,19.552c51.225,0.196 95.61,-8.604 133.541,-26.396c37.736,-17.792 67.262,-45.948 87.987,-84.465c20.92,-38.52 31.478,-88.769 31.87,-150.751l0,-703.884l-92.679,-0l-14.077,86.812c-7.235,-19.943 -18.966,-36.954 -35.194,-51.032c-16.033,-13.881 -35.587,-24.439 -58.266,-31.87c-22.682,-7.234 -47.512,-10.95 -74.3,-10.95c-34.411,-0.194 -65.891,4.106 -94.243,12.514c-28.35,8.604 -52.79,22.485 -73.321,41.647c-20.725,19.356 -36.563,44.775 -47.708,76.451c-11.144,31.674 -16.815,70.778 -17.009,116.922l-0,207.645c-0,77.624 19.943,136.28 59.633,175.973c39.887,39.691 99.326,59.633 178.514,59.829Zm0,-104.41c-26.592,0.197 -49.468,-4.301 -68.239,-13.491c-18.965,-9.188 -33.434,-24.243 -43.405,-45.361c-9.971,-21.312 -15.055,-49.663 -15.055,-85.443l-0,-195.916c-0,-27.959 2.933,-51.227 8.602,-69.802c5.672,-18.379 14.274,-32.848 25.614,-43.406c11.536,-10.557 25.81,-17.988 43.015,-22.485c17.208,-4.301 37.15,-6.451 60.026,-6.257c23.268,0.783 43.798,4.107 61.786,9.971c17.792,6.063 33.044,15.448 45.361,28.352c12.514,12.905 22.095,30.11 28.743,51.813c6.451,21.508 10.167,48.1 10.754,79.97l-0,132.564c-0,35.39 -3.716,64.719 -10.95,87.986c-7.431,23.268 -17.793,41.647 -31.48,54.942c-13.686,13.491 -30.306,22.878 -49.662,28.548c-19.358,5.474 -41.06,8.212 -65.11,8.015Z" style="fill-rule:nonzero;"/><path d="M2910.48,228.308c-28.352,-5.67 -55.335,-6.647 -81.144,-2.933c-25.613,3.912 -48.489,11.537 -68.432,23.072c-20.14,11.341 -35.978,25.809 -47.513,43.211l-4.693,-63.35l-102.062,0l0,687.462l111.448,-0l-0,-441.101c0.194,-26.396 5.084,-49.078 14.859,-67.651c9.777,-18.771 23.462,-33.826 40.864,-44.776c17.402,-11.145 37.737,-18.379 61.005,-21.703c23.266,-3.324 48.489,-2.933 75.668,1.564l-0,-113.795Z" style="fill-rule:nonzero;"/><path d="M3466.55,451.206c-0.196,-55.334 -9.776,-99.913 -28.742,-133.739c-18.965,-33.824 -46.144,-58.266 -81.728,-73.517c-35.587,-15.446 -78.601,-22.876 -128.85,-22.68c-48.685,-0.196 -89.551,7.234 -122.789,22.29c-33.436,15.055 -58.268,38.713 -74.886,70.583c-16.816,32.067 -24.246,73.517 -22.876,124.159l109.101,-0c-0.194,-30.697 4.106,-54.356 13.101,-70.975c8.994,-16.817 21.702,-28.352 37.931,-34.805c16.228,-6.451 35.196,-9.581 56.898,-9.188c34.216,0.196 60.613,5.474 79.578,15.838c19.162,10.558 32.262,25.416 39.887,44.382c7.43,19.162 11.145,41.647 10.754,67.652l0,66.87c-27.178,0.39 -54.747,1.367 -82.707,2.541c-27.96,1.367 -55.529,4.105 -82.706,8.017c-47.121,6.844 -87.205,20.529 -119.857,41.058c-32.847,20.532 -57.093,46.537 -73.125,78.211c-15.838,31.674 -21.899,67.846 -18.185,108.32c1.76,20.53 6.257,40.474 13.297,59.83c7.038,19.358 17.987,36.954 32.847,52.595c15.055,15.642 35.39,28.156 61.004,37.541c25.613,9.19 57.875,14.078 96.979,14.274c27.96,-0.39 53.575,-5.084 76.841,-14.274c23.268,-9.385 43.407,-21.506 60.222,-36.367c16.815,-14.859 29.328,-30.893 37.737,-47.902l9.385,92.676l100.889,0l0,-463.39Zm-110.274,159.547c-0.783,28.352 -3.912,54.748 -9.581,79.187c-5.671,24.44 -14.664,45.948 -26.982,64.523c-12.319,18.575 -28.939,33.044 -49.468,43.405c-20.726,10.364 -46.339,15.644 -77.037,15.838c-17.012,0.197 -33.044,-2.15 -48.099,-6.647c-15.055,-4.301 -27.569,-11.928 -37.541,-22.29c-9.97,-10.557 -15.837,-24.831 -17.595,-42.624c-3.913,-33.239 3.518,-59.439 22.289,-78.795c18.769,-19.161 47.316,-32.849 85.639,-40.866c19.748,-4.301 39.887,-7.234 60.025,-8.798c20.336,-1.564 39.105,-2.543 56.31,-2.737c17.208,-0.196 31.286,-0.39 42.04,-0.196Z" style="fill-rule:nonzero;"/><path d="M3609.67,915.77l111.45,-0l-0,-534.953l146.641,-0l0,-103.237l-146.641,-0l-0,-23.463c-0,-33.63 3.91,-60.806 11.731,-81.924c7.625,-20.92 18.769,-36.954 33.239,-47.706c14.469,-10.754 32.065,-17.598 52.596,-20.531c20.333,-2.738 43.405,-2.932 69.018,-0l0,-102.064c-41.449,-3.91 -79.186,-1.76 -113.206,6.454c-34.022,8.015 -63.352,22.483 -87.791,43.014c-24.636,20.725 -43.602,47.902 -56.897,81.534c-13.297,33.628 -19.944,74.102 -20.14,121.223l-0,661.653Z" style="fill-rule:nonzero;"/><path d="M4111.78,914.596l0,-681.594l-111.448,-0l0,681.594l111.448,0Zm-122.008,-843.487c0.197,14.858 3.52,27.176 9.974,36.757c6.451,9.581 14.858,16.815 25.026,21.312c10.167,4.693 20.922,6.844 32.457,6.648c11.537,-0.391 22.291,-2.932 32.456,-7.821c10.168,-5.084 18.576,-12.318 25.029,-21.703c6.451,-9.581 9.775,-21.312 9.971,-35.193c-0.196,-14.861 -3.52,-27.179 -9.971,-36.954c-6.453,-9.777 -14.861,-17.012 -25.029,-21.705c-10.165,-4.691 -20.919,-7.038 -32.456,-6.842c-11.535,0 -22.29,2.738 -32.457,7.625c-10.168,4.887 -18.575,12.318 -25.026,21.899c-6.454,9.775 -9.777,21.702 -9.974,35.977Z" style="fill-rule:nonzero;"/><path d="M4738.24,451.206c-0.196,-55.334 -9.777,-99.913 -28.743,-133.739c-18.965,-33.824 -46.144,-58.266 -81.728,-73.517c-35.586,-15.446 -78.601,-22.876 -128.85,-22.68c-48.687,-0.196 -89.551,7.234 -122.789,22.29c-33.435,15.055 -58.268,38.713 -74.886,70.583c-16.815,32.067 -24.246,73.517 -22.876,124.159l109.101,-0c-0.194,-30.697 4.107,-54.356 13.101,-70.975c8.994,-16.817 21.702,-28.352 37.931,-34.805c16.228,-6.451 35.196,-9.581 56.898,-9.188c34.217,0.196 60.613,5.474 79.578,15.838c19.162,10.558 32.263,25.416 39.887,44.382c7.429,19.162 11.145,41.647 10.753,67.652l-0,66.87c-27.177,0.39 -54.746,1.367 -82.706,2.541c-27.96,1.367 -55.529,4.105 -82.705,8.017c-47.122,6.844 -87.205,20.529 -119.858,41.058c-32.847,20.532 -57.093,46.537 -73.125,78.211c-15.838,31.674 -21.899,67.846 -18.185,108.32c1.761,20.53 6.257,40.474 13.297,59.83c7.038,19.358 17.987,36.954 32.848,52.595c15.055,15.642 35.39,28.156 61.003,37.541c25.615,9.19 57.875,14.078 96.98,14.274c27.959,-0.39 53.572,-5.084 76.841,-14.274c23.268,-9.385 43.406,-21.506 60.222,-36.367c16.815,-14.859 29.329,-30.893 37.736,-47.902l9.385,92.676l100.89,0l0,-463.39Zm-110.275,159.547c-0.783,28.352 -3.912,54.748 -9.581,79.187c-5.67,24.44 -14.664,45.948 -26.982,64.523c-12.318,18.575 -28.939,33.044 -49.468,43.405c-20.726,10.364 -46.34,15.644 -77.037,15.838c-17.011,0.197 -33.044,-2.15 -48.099,-6.647c-15.055,-4.301 -27.569,-11.928 -37.54,-22.29c-9.971,-10.557 -15.838,-24.831 -17.596,-42.624c-3.912,-33.239 3.518,-59.439 22.289,-78.795c18.769,-19.161 47.316,-32.849 85.639,-40.866c19.749,-4.301 39.887,-7.234 60.026,-8.798c20.335,-1.564 39.104,-2.543 56.31,-2.737c17.207,-0.196 31.285,-0.39 42.039,-0.196Z" style="fill-rule:nonzero;"/><path d="M1417.09,1610.37l-9.113,-0.339c938.012,-308.624 1929.89,-380.097 2773.25,-238.307c-626.812,6.171 -1196.54,51.497 -1715.45,249.761c-221.241,-9.707 -454.427,-14.92 -695.359,-14.92c-119.879,0 -237.783,1.326 -353.326,3.805Z" style="fill:#e6007e;"/><path d="M2755.43,1637.18c491.63,-170.697 998.613,-260.403 1455.8,-205.997c-393.686,34.058 -749.968,89.751 -1067.34,237.552c-122.892,-12.165 -252.752,-22.741 -388.462,-31.555Z" style="fill:#ffed00;"/></svg>